<svg width="2289" height="749" viewBox="0 0 2289 749" fill="none" xmlns="http://www.w3.org/2000/svg">
<g filter="url(#filter0_d)">
<path d="M1469.7 0.460428C1468.48 0.68108 1466.74 2.005 1465.93 3.32892C1464.51 5.86642 1463.69 18.1126 1452.68 216.479C1444.32 367.075 1444.93 358.469 1443.6 357.035C1443.3 356.814 1441.47 330.998 1439.52 299.776C1435.45 236.228 1435.14 233.028 1433.51 231.484C1431.07 229.388 1423.72 227.953 1421.68 229.167C1420.56 229.718 1415.27 237.993 1409.86 247.371C1402.01 260.941 1399.56 264.471 1397.83 264.471C1396.41 264.471 1389.98 259.176 1380.91 250.681C1366.22 236.89 1364.6 235.897 1358.48 236.89C1357.66 237 1350.93 240.862 1343.69 245.495L1330.35 253.99L1262.25 254.542L1194.05 255.094L1192.01 257.852C1190.48 259.948 1190.06 261.713 1190.48 265.244C1191.39 274.07 1185.17 273.408 1264.49 273.077L1335.44 272.746L1344.11 267.119C1354.71 260.168 1358.89 257.852 1360.72 257.852C1361.54 257.852 1368.98 264.361 1377.34 272.305C1396.81 290.729 1396.1 290.288 1401.7 289.295C1406.19 288.633 1406.6 288.302 1412 279.145C1416.79 271.091 1417.81 269.877 1419.03 271.202C1420.05 272.305 1421.38 288.192 1424.03 330.115C1426.07 361.669 1429.54 415.509 1431.78 449.82C1434.02 484.131 1435.86 516.788 1435.86 522.304C1435.86 532.013 1435.96 532.564 1438.41 534.329C1440.34 535.654 1442.38 535.984 1446.25 535.654C1453.29 534.881 1454.41 533.006 1453.9 523.739C1453.59 516.567 1456.14 465.927 1464.91 308.602C1467.46 262.816 1470.92 201.586 1472.56 172.569C1474.09 143.443 1475.72 119.502 1476.02 119.062C1476.33 118.73 1476.84 118.73 1477.04 118.951C1477.25 119.172 1482.14 160.103 1487.85 209.86C1493.56 259.617 1498.76 301.541 1499.47 303.085C1500.49 305.513 1501.41 305.844 1506.4 306.175C1513.43 306.616 1512.21 308.161 1527.91 278.262C1536.68 261.713 1540.04 256.197 1541.47 256.197C1542.69 256.197 1544.94 258.735 1547.69 263.368C1550.13 267.34 1553.5 271.863 1555.33 273.518L1558.6 276.608H1640.86H1723.03L1727.01 273.739C1729.15 272.084 1733.33 268.664 1736.18 266.016C1739.04 263.368 1742.4 261.161 1743.63 261.161C1746.18 261.161 1747.29 262.816 1762.38 288.633L1773.4 307.499H1778.9C1785.63 307.499 1786.24 306.836 1794.4 289.185C1797.66 282.234 1800.92 276.608 1801.53 276.608C1803.26 276.608 1803.57 278.814 1804.89 296.466C1806.32 316.104 1813.05 408.999 1818.04 476.629C1822.43 536.316 1822.12 534.771 1829.26 534.771C1834.77 534.771 1837.93 532.564 1838.84 528.151C1839.25 526.055 1841.19 493.289 1843.12 455.336C1846.59 387.817 1850.36 316.655 1857.3 186.912C1859.13 151.277 1860.97 121.709 1861.37 121.378C1861.68 120.937 1862.19 120.937 1862.39 121.157C1862.59 121.378 1867.18 158.558 1872.59 203.792C1883.7 296.687 1884.1 299.776 1885.54 301.541C1886.75 303.196 1894.91 304.52 1897.66 303.638C1898.88 303.196 1903.37 294.811 1910.92 278.814C1919.37 260.5 1922.64 254.542 1924.06 254.542C1925.19 254.542 1928.25 257.742 1931.61 262.486C1934.67 266.899 1938.34 271.532 1939.67 272.746C1942.01 274.953 1943.13 274.953 2105.83 274.401C2261.09 273.849 2269.76 273.739 2271.49 271.863C2274.04 269.215 2274.04 259.728 2271.49 257.08C2269.76 255.204 2262.22 255.094 2110.83 255.535C2023.56 255.755 1951.09 255.535 1949.86 255.204C1948.63 254.763 1943.54 248.805 1938.54 241.855C1933.45 234.904 1928.25 228.615 1927.03 227.733C1925.5 226.74 1923.05 226.298 1920.3 226.63C1915.1 227.292 1914.38 228.395 1905.41 247.702C1900.01 259.507 1898.58 261.383 1897.15 258.955C1896.84 258.403 1890.63 208.426 1883.39 147.857C1865.75 0.57075 1866.47 6.52838 1865.04 4.65283C1863.31 2.4463 1853.52 2.4463 1851.38 4.65283C1849.44 6.74903 1849.14 10.0589 1846.69 57.6095C1845.57 79.4544 1843.22 122.923 1841.59 154.145C1839.97 185.368 1836.7 247.481 1834.46 292.053C1832.11 336.625 1829.87 374.136 1829.46 375.35C1828.75 377.225 1828.55 377.005 1828.04 373.695C1827.63 371.599 1825.28 340.045 1822.63 303.638C1820.08 267.229 1817.44 236.228 1816.72 234.684C1815.91 232.698 1814.37 231.704 1811.31 230.933C1803.16 229.057 1803.16 229.167 1791.13 254.542C1781.85 274.29 1779.92 277.821 1778.08 277.49C1776.65 277.269 1772.78 271.532 1765.44 258.955C1759.53 248.916 1754.12 239.979 1753.31 238.986C1752.49 237.993 1749.84 236.779 1747.6 236.449C1742.81 235.566 1742.51 235.787 1728.94 247.923C1724.46 252.004 1719.77 255.866 1718.55 256.638C1715.18 258.514 1567.37 258.403 1565.12 256.418C1564.2 255.755 1559.82 249.026 1555.23 241.634C1550.75 234.242 1546.16 227.623 1545.14 227.071C1543.2 225.967 1535.86 227.623 1534.03 229.498C1533.62 229.939 1529.13 238.104 1524.03 247.591C1519.04 257.08 1514.35 265.023 1513.64 265.244C1513.03 265.464 1512.21 264.802 1511.91 263.699C1511.6 262.596 1504.67 204.123 1496.51 133.735C1488.36 63.4568 1481.43 4.98381 1481.12 3.77022C1480.2 0.460428 1475.82 -0.753162 1469.7 0.460428Z" fill="#55BEFF" fill-opacity="0.9"/>
</g>
<g filter="url(#filter1_d)">
<path d="M348.779 253.549V633.872H306.921V458.38H55.7751V633.872H13.3441V253.549H55.7751V423.065H306.921V253.549H348.779ZM753.865 633.872L662.125 511.626C651.804 512.712 641.1 513.256 630.015 513.256H522.217V633.872H479.786V253.549H630.015C681.238 253.549 721.375 265.14 750.425 288.321C779.477 311.503 794.003 343.378 794.003 383.946C794.003 413.647 785.975 438.821 769.92 459.467C754.247 479.751 731.696 494.42 702.262 503.476L800.31 633.872H753.865ZM628.868 479.026C668.623 479.026 699.013 470.696 720.037 454.034C741.062 437.372 751.572 414.009 751.572 383.946C751.572 353.157 741.062 329.614 720.037 313.314C699.013 296.652 668.623 288.321 628.868 288.321H522.217V479.026H628.868ZM1227.87 253.549L1050.12 633.872H1008.26L830.509 253.549H876.38L1030.05 583.887L1184.87 253.549H1227.87Z" fill="#55BEFF"/>
</g>
<path d="M1318.16 748.693C1303.25 748.693 1288.92 746.43 1275.16 741.902C1261.59 737.374 1251.08 731.398 1243.62 723.972L1251.94 708.488C1259.2 715.37 1268.85 720.984 1280.89 725.331C1292.93 729.496 1305.36 731.579 1318.16 731.579C1336.13 731.579 1349.6 728.5 1358.59 722.342C1367.57 716.004 1372.06 707.854 1372.06 697.893C1372.06 690.287 1369.58 684.22 1364.61 679.692C1359.83 675.164 1353.9 671.723 1346.83 669.369C1339.76 666.833 1329.92 664.117 1317.3 661.219C1302.2 657.597 1290.16 654.156 1281.18 650.896C1272.2 647.455 1264.45 642.293 1257.96 635.411C1251.65 628.529 1248.5 619.202 1248.5 607.43C1248.5 597.832 1251.17 589.139 1256.52 581.351C1261.87 573.382 1270.09 567.044 1281.18 562.335C1292.26 557.626 1306.03 555.272 1322.46 555.272C1333.93 555.272 1345.11 556.811 1356.01 559.89C1367.09 562.788 1376.65 566.862 1384.68 572.115L1377.51 588.142C1369.1 582.89 1360.12 578.997 1350.56 576.461C1341 573.744 1331.64 572.386 1322.46 572.386C1304.88 572.386 1291.6 575.646 1282.61 582.166C1273.82 588.505 1269.42 596.745 1269.42 606.887C1269.42 614.494 1271.81 620.651 1276.59 625.36C1281.56 629.888 1287.68 633.419 1294.94 635.955C1302.39 638.309 1312.33 640.935 1324.76 643.833C1339.47 647.274 1351.32 650.715 1360.31 654.156C1369.48 657.416 1377.22 662.487 1383.53 669.369C1389.84 676.07 1392.99 685.216 1392.99 696.806C1392.99 706.405 1390.22 715.189 1384.68 723.157C1379.32 730.945 1371.01 737.193 1359.73 741.902C1348.46 746.43 1334.6 748.693 1318.16 748.693ZM1497.41 748.422C1482.5 748.422 1469.12 745.343 1457.27 739.185C1445.61 733.028 1436.44 724.425 1429.75 713.378C1423.06 702.149 1419.72 689.562 1419.72 675.617C1419.72 661.672 1423.06 649.175 1429.75 638.128C1436.44 627.08 1445.61 618.478 1457.27 612.32C1469.12 606.163 1482.5 603.084 1497.41 603.084C1510.41 603.084 1521.97 605.529 1532.1 610.419C1542.42 615.127 1550.55 622.1 1556.47 631.336L1541.28 641.116C1536.31 634.053 1530 628.801 1522.35 625.36C1514.71 621.738 1506.39 619.927 1497.41 619.927C1486.52 619.927 1476.67 622.281 1467.88 626.99C1459.28 631.517 1452.5 638.037 1447.53 646.549C1442.75 655.061 1440.36 664.751 1440.36 675.617C1440.36 686.664 1442.75 696.444 1447.53 704.956C1452.5 713.287 1459.28 719.807 1467.88 724.516C1476.67 729.043 1486.52 731.307 1497.41 731.307C1506.39 731.307 1514.71 729.587 1522.35 726.146C1530 722.705 1536.31 717.453 1541.28 710.389L1556.47 720.169C1550.55 729.406 1542.42 736.469 1532.1 741.359C1521.78 746.067 1510.22 748.422 1497.41 748.422ZM1596.46 604.17H1616.82V747.063H1596.46V604.17ZM1606.79 572.93C1602.58 572.93 1599.04 571.571 1596.18 568.855C1593.31 566.138 1591.88 562.878 1591.88 559.075C1591.88 555.453 1593.31 552.283 1596.18 549.567C1599.04 546.85 1602.58 545.492 1606.79 545.492C1610.99 545.492 1614.53 546.85 1617.39 549.567C1620.26 552.102 1621.69 555.181 1621.69 558.803C1621.69 562.788 1620.26 566.138 1617.39 568.855C1614.53 571.571 1610.99 572.93 1606.79 572.93Z" fill="#153641"/>
<path d="M1845.48 556.902V747.064H1824.55V659.317H1698.97V747.064H1677.76V556.902H1698.97V641.66H1824.55V556.902H1845.48ZM2042.57 604.17V747.064H2023.08V720.984C2017.73 729.677 2010.37 736.469 2001 741.359C1991.64 746.068 1980.93 748.422 1968.89 748.422C1949.2 748.422 1933.63 743.26 1922.16 732.937C1910.88 722.433 1905.24 707.13 1905.24 687.027V604.17H1925.6V685.125C1925.6 700.157 1929.52 711.567 1937.35 719.354C1945.19 727.142 1956.37 731.036 1970.9 731.036C1986.76 731.036 1999.28 726.508 2008.46 717.453C2017.63 708.216 2022.22 695.448 2022.22 679.149V604.17H2042.57ZM2177.27 603.084C2191.42 603.084 2204.22 606.163 2215.69 612.32C2227.16 618.297 2236.14 626.809 2242.64 637.856C2249.14 648.904 2252.39 661.491 2252.39 675.617C2252.39 689.743 2249.14 702.33 2242.64 713.378C2236.14 724.425 2227.16 733.028 2215.69 739.186C2204.22 745.343 2191.42 748.422 2177.27 748.422C2164.66 748.422 2153.28 745.886 2143.15 740.815C2133.22 735.744 2125.19 728.41 2119.07 718.811V747.064H2099.58V545.492H2119.93V631.336C2126.24 622.1 2134.27 615.127 2144.01 610.419C2153.95 605.529 2165.04 603.084 2177.27 603.084ZM2175.84 731.307C2186.35 731.307 2195.91 729.044 2204.51 724.516C2213.11 719.807 2219.8 713.197 2224.58 704.685C2229.55 696.173 2232.03 686.483 2232.03 675.617C2232.03 664.751 2229.55 655.061 2224.58 646.549C2219.8 638.037 2213.11 631.518 2204.51 626.99C2195.91 622.281 2186.35 619.927 2175.84 619.927C2165.13 619.927 2155.48 622.281 2146.88 626.99C2138.47 631.518 2131.78 638.037 2126.81 646.549C2122.03 655.061 2119.65 664.751 2119.65 675.617C2119.65 686.483 2122.03 696.173 2126.81 704.685C2131.78 713.197 2138.47 719.807 2146.88 724.516C2155.48 729.044 2165.13 731.307 2175.84 731.307Z" fill="#153641"/>
<defs>
<filter id="filter0_d" x="1186.33" y="2.28882e-05" width="1091.08" height="543.773" filterUnits="userSpaceOnUse" color-interpolation-filters="sRGB">
<feFlood flood-opacity="0" result="BackgroundImageFix"/>
<feColorMatrix in="SourceAlpha" type="matrix" values="0 0 0 0 0 0 0 0 0 0 0 0 0 0 0 0 0 0 127 0"/>
<feOffset dy="4"/>
<feGaussianBlur stdDeviation="2"/>
<feColorMatrix type="matrix" values="0 0 0 0 0 0 0 0 0 0 0 0 0 0 0 0 0 0 0.25 0"/>
<feBlend mode="normal" in2="BackgroundImageFix" result="effect1_dropShadow"/>
<feBlend mode="normal" in="SourceGraphic" in2="effect1_dropShadow" result="shape"/>
</filter>
<filter id="filter1_d" x="9.34406" y="253.549" width="1222.53" height="388.324" filterUnits="userSpaceOnUse" color-interpolation-filters="sRGB">
<feFlood flood-opacity="0" result="BackgroundImageFix"/>
<feColorMatrix in="SourceAlpha" type="matrix" values="0 0 0 0 0 0 0 0 0 0 0 0 0 0 0 0 0 0 127 0"/>
<feOffset dy="4"/>
<feGaussianBlur stdDeviation="2"/>
<feColorMatrix type="matrix" values="0 0 0 0 0 0 0 0 0 0 0 0 0 0 0 0 0 0 0.25 0"/>
<feBlend mode="normal" in2="BackgroundImageFix" result="effect1_dropShadow"/>
<feBlend mode="normal" in="SourceGraphic" in2="effect1_dropShadow" result="shape"/>
</filter>
</defs>
</svg>
