<svg width="600" height="600" viewBox="0 0 600 600" fill="none" xmlns="http://www.w3.org/2000/svg">
<g filter="url(#filter0_d)">
<path d="M162.835 0.463388C162.195 0.685469 161.288 2.01796 160.862 3.35044C160.115 5.90437 159.688 18.2299 153.928 217.881C149.554 369.45 149.874 360.789 149.181 359.346C149.021 359.124 148.061 333.141 147.048 301.716C144.914 237.756 144.754 234.536 143.9 232.982C142.62 230.872 138.78 229.429 137.713 230.65C137.127 231.205 134.353 239.534 131.526 248.972C127.419 262.63 126.139 266.183 125.233 266.183C124.486 266.183 121.125 260.853 116.378 252.303C108.698 238.423 107.845 237.424 104.644 238.423C104.218 238.534 100.697 242.421 96.9104 247.084L89.9234 255.634L54.2938 256.189L18.6111 256.745L17.5444 259.521C16.7443 261.63 16.531 263.407 16.7443 266.961C17.2244 275.844 13.9708 275.178 55.4671 274.844L92.59 274.511L97.1238 268.848C102.671 261.852 104.858 259.521 105.818 259.521C106.244 259.521 110.138 266.072 114.512 274.067C124.699 292.611 124.326 292.167 127.259 291.167C129.606 290.501 129.82 290.168 132.646 280.951C135.153 272.846 135.687 271.624 136.327 272.957C136.86 274.067 137.553 290.057 138.94 332.252C140.007 364.009 141.82 418.198 142.994 452.731C144.167 487.265 145.127 520.133 145.127 525.684C145.127 535.456 145.18 536.011 146.461 537.788C147.474 539.121 148.541 539.453 150.568 539.121C154.248 538.343 154.835 536.456 154.568 527.128C154.408 519.911 155.741 468.943 160.328 310.6C161.662 264.517 163.475 202.89 164.329 173.686C165.129 144.371 165.982 120.276 166.142 119.832C166.302 119.499 166.569 119.499 166.675 119.721C166.782 119.943 169.343 161.139 172.329 211.218C175.316 261.297 178.036 303.493 178.41 305.047C178.943 307.49 179.423 307.824 182.037 308.156C185.717 308.601 185.077 310.155 193.291 280.063C197.878 263.407 199.638 257.855 200.385 257.855C201.025 257.855 202.198 260.409 203.638 265.072C204.918 269.07 206.678 273.623 207.639 275.288L209.345 278.398H252.389H295.378L297.459 275.51C298.579 273.845 300.765 270.403 302.259 267.738C303.753 265.072 305.513 262.852 306.153 262.852C307.486 262.852 308.073 264.517 315.967 290.501L321.727 309.489H324.608C328.128 309.489 328.448 308.822 332.715 291.056C334.421 284.061 336.128 278.398 336.448 278.398C337.355 278.398 337.515 280.619 338.208 298.385C338.955 318.15 342.475 411.646 345.089 479.714C347.383 539.787 347.223 538.232 350.956 538.232C353.836 538.232 355.49 536.011 355.97 531.57C356.183 529.46 357.196 496.481 358.21 458.283C360.023 390.327 361.997 318.705 365.624 188.122C366.584 152.256 367.544 122.496 367.757 122.164C367.917 121.719 368.184 121.719 368.29 121.941C368.397 122.164 370.798 159.584 373.624 205.111C379.438 298.607 379.651 301.716 380.398 303.493C381.038 305.159 385.305 306.491 386.745 305.603C387.385 305.159 389.732 296.719 393.679 280.619C398.106 262.186 399.813 256.189 400.56 256.189C401.146 256.189 402.747 259.41 404.507 264.185C406.107 268.626 408.027 273.289 408.72 274.511C409.947 276.732 410.534 276.732 495.658 276.177C576.892 275.622 581.425 275.51 582.333 273.623C583.667 270.958 583.667 261.409 582.333 258.744C581.425 256.855 577.479 256.745 498.275 257.189C452.617 257.411 414.694 257.189 414.054 256.855C413.414 256.412 410.747 250.416 408.134 243.42C405.467 236.424 402.747 230.095 402.106 229.207C401.306 228.207 400.026 227.763 398.586 228.096C395.866 228.763 395.493 229.873 390.799 249.305C387.972 261.186 387.225 263.074 386.479 260.631C386.319 260.076 383.065 209.774 379.278 148.814C370.051 0.574425 370.424 6.57061 369.678 4.68292C368.77 2.46212 363.65 2.46212 362.53 4.68292C361.517 6.79269 361.357 10.1239 360.077 57.9823C359.49 79.9686 358.263 123.718 357.41 155.143C356.556 186.567 354.85 249.083 353.676 293.943C352.45 338.803 351.276 376.557 351.063 377.779C350.689 379.666 350.583 379.445 350.316 376.113C350.103 374.004 348.876 342.246 347.489 305.603C346.155 268.959 344.769 237.756 344.395 236.203C343.969 234.204 343.169 233.204 341.569 232.427C337.302 230.539 337.302 230.65 331.008 256.189C326.154 276.065 325.141 279.619 324.181 279.286C323.434 279.064 321.407 273.289 317.567 260.631C314.473 250.527 311.646 241.532 311.22 240.532C310.793 239.534 309.406 238.312 308.233 237.979C305.726 237.09 305.566 237.313 298.472 249.527C296.125 253.635 293.672 257.522 293.032 258.299C291.272 260.187 213.933 260.076 212.759 258.078C212.279 257.411 209.985 250.638 207.585 243.198C205.238 235.758 202.838 229.096 202.305 228.541C201.291 227.43 197.451 229.096 196.491 230.983C196.278 231.428 193.931 239.645 191.264 249.194C188.65 258.744 186.197 266.738 185.824 266.961C185.504 267.182 185.077 266.516 184.917 265.406C184.757 264.295 181.13 205.444 176.863 134.601C172.596 63.8675 168.969 5.01604 168.809 3.7946C168.329 0.463388 166.035 -0.758056 162.835 0.463388Z" fill="#FE3F5C"/>
</g>
<defs>
<filter id="filter0_d" x="12.6667" y="3.8147e-06" width="574.667" height="547.241" filterUnits="userSpaceOnUse" color-interpolation-filters="sRGB">
<feFlood flood-opacity="0" result="BackgroundImageFix"/>
<feColorMatrix in="SourceAlpha" type="matrix" values="0 0 0 0 0 0 0 0 0 0 0 0 0 0 0 0 0 0 127 0"/>
<feOffset dy="4"/>
<feGaussianBlur stdDeviation="2"/>
<feColorMatrix type="matrix" values="0 0 0 0 0 0 0 0 0 0 0 0 0 0 0 0 0 0 0.25 0"/>
<feBlend mode="normal" in2="BackgroundImageFix" result="effect1_dropShadow"/>
<feBlend mode="normal" in="SourceGraphic" in2="effect1_dropShadow" result="shape"/>
</filter>
</defs>
</svg>
